# This file uses centimeters as units for non-parametric coordinates.

mtllib ProbodobodyneOKTO2.mtl
g default
v 1.778624 0.151472 -1.778624
v 0.000001 0.151472 -2.515354
v -1.778623 0.151472 -1.778624
v -2.515354 0.151472 -0.000000
v -1.778623 0.151472 1.778623
v 0.000001 0.151472 2.515354
v 1.778625 0.151472 1.778623
v 2.515354 0.151472 -0.000000
v 1.778624 0.759735 -1.778624
v 0.000001 0.759735 -2.515354
v -1.778623 0.759735 -1.778624
v -2.515354 0.759735 -0.000000
v -1.778623 0.759735 1.778623
v 0.000001 0.759735 2.515354
v 1.778625 0.759735 1.778623
v 2.515354 0.759735 -0.000000
v 1.657205 0.151472 -1.657205
v 0.000001 0.151472 -2.343642
v -1.657204 0.151472 -1.657205
v -2.343641 0.151472 -0.000000
v -1.657204 0.151472 1.657204
v 0.000001 0.151472 2.343641
v 1.657205 0.151472 1.657204
v 2.343642 0.151472 -0.000000
v 1.657205 0.759735 -1.657205
v 0.000001 0.759735 -2.343642
v -1.657204 0.759735 -1.657205
v -2.343641 0.759735 -0.000000
v -1.657204 0.759735 1.657204
v 0.000001 0.759735 2.343641
v 1.657205 0.759735 1.657204
v 2.343642 0.759735 -0.000000
v 1.644635 0.000000 -1.644635
v 0.000001 0.000000 -2.325865
v -1.644634 0.000000 -1.644635
v -2.325864 0.000000 -0.000000
v -1.644634 0.000000 1.644634
v 0.000001 0.000000 2.325864
v 1.644635 0.000000 1.644634
v 2.325865 0.000000 -0.000000
v 1.644635 0.911207 -1.644635
v 0.000001 0.911207 -2.325865
v -1.644634 0.911207 -1.644635
v -2.325864 0.911207 -0.000000
v -1.644634 0.911207 1.644634
v 0.000001 0.911207 2.325864
v 1.644635 0.911207 1.644634
v 2.325865 0.911207 -0.000000
v 1.689693 0.287521 -1.815461
v 0.088932 0.287521 -2.478518
v 0.088932 0.623687 -2.478518
v 1.689693 0.623687 -1.815461
v -0.088931 0.287521 -2.478518
v -1.689692 0.287521 -1.815461
v -1.689692 0.623687 -1.815461
v -0.088931 0.623687 -2.478518
v -1.815460 0.287521 -1.689693
v -2.478517 0.287521 -0.088932
v -2.478517 0.623687 -0.088932
v -1.815460 0.623687 -1.689693
v -2.478517 0.287521 0.088931
v -1.815460 0.287521 1.689692
v -1.815460 0.623687 1.689692
v -2.478517 0.623687 0.088931
v -1.689692 0.287521 1.815460
v -0.088931 0.287521 2.478517
v -0.088931 0.623687 2.478517
v -1.689692 0.623687 1.815460
v 0.088932 0.287521 2.478517
v 1.689693 0.287521 1.815460
v 1.689693 0.623687 1.815460
v 0.088932 0.623687 2.478517
v 1.815461 0.287521 1.689692
v 2.478518 0.287521 0.088931
v 2.478518 0.623687 0.088931
v 1.815461 0.623687 1.689692
v 2.478518 0.287521 -0.088932
v 1.815461 0.287521 -1.689693
v 1.815461 0.623687 -1.689693
v 2.478518 0.623687 -0.088932
v 1.232970 0.000000 -1.232970
v 0.000001 0.000000 -1.743683
v 0.000001 0.000000 -0.000000
v -1.232969 0.000000 -1.232970
v -1.743682 0.000000 -0.000000
v -1.232969 0.000000 1.232970
v 0.000001 0.000000 1.743682
v 1.232970 0.000000 1.232970
v 1.743683 0.000000 -0.000000
v 1.232970 0.911207 -1.232970
v 0.000001 0.911207 -1.743683
v 0.000001 0.911207 -0.000000
v -1.232969 0.911207 -1.232970
v -1.743682 0.911207 -0.000000
v -1.232969 0.911207 1.232969
v 0.000001 0.911207 1.743682
v 1.232970 0.911207 1.232970
v 1.743683 0.911207 -0.000000
vt 0.175021 0.513706
vt 0.178282 0.730505
vt 0.134305 0.731356
vt 0.130617 0.514514
vt 0.178721 0.755056
vt 0.182889 0.978419
vt 0.137364 0.978723
vt 0.134704 0.756023
vt 0.372187 0.978461
vt 0.373674 0.755750
vt 0.417701 0.755602
vt 0.417710 0.979005
vt 0.373735 0.731079
vt 0.374090 0.514203
vt 0.418504 0.514223
vt 0.417720 0.731047
vt 0.374160 0.489761
vt 0.374955 0.272939
vt 0.418940 0.272911
vt 0.418572 0.489783
vt 0.374975 0.248384
vt 0.374985 0.024981
vt 0.420507 0.025529
vt 0.419002 0.248240
vt 0.167855 0.025054
vt 0.170533 0.247754
vt 0.126516 0.248725
vt 0.122330 0.025362
vt 0.170933 0.272422
vt 0.174634 0.489266
vt 0.130228 0.490077
vt 0.126957 0.273277
vt 0.912414 0.262826
vt 0.872417 0.389678
vt 0.739292 0.277973
vt 0.850997 0.144847
vt 0.724145 0.104851
vt 0.606166 0.166267
vt 0.566170 0.293119
vt 0.627586 0.411098
vt 0.754438 0.451094
vt 0.845953 0.610876
vt 0.911656 0.726522
vt 0.739206 0.748010
vt 0.876340 0.854756
vt 0.760693 0.920459
vt 0.632459 0.885143
vt 0.566756 0.769496
vt 0.602072 0.641262
vt 0.717719 0.575559
vt 0.196292 0.742364
vt 0.192840 0.501160
vt 0.213379 0.501126
vt 0.216858 0.742024
vt 0.353656 0.990927
vt 0.222722 0.981001
vt 0.355880 0.743289
vt 0.335522 0.742730
vt 0.356110 0.501972
vt 0.335573 0.501621
vt 0.357169 0.260745
vt 0.336601 0.260701
vt 0.186149 0.012244
vt 0.335207 0.021655
vt 0.188557 0.259881
vt 0.208922 0.260058
vt 0.112411 0.502620
vt 0.116680 0.743896
vt 0.096316 0.743716
vt 0.091872 0.502653
vt 0.436089 0.991726
vt 0.457488 0.982328
vt 0.435505 0.743240
vt 0.456074 0.743283
vt 0.436552 0.502016
vt 0.457088 0.502367
vt 0.436796 0.260702
vt 0.457153 0.261262
vt 0.103716 0.012987
vt 0.082497 0.022783
vt 0.108946 0.261419
vt 0.088381 0.261760
vt 0.916865 0.426974
vt 0.970216 0.257769
vt 0.888293 0.100398
vt 0.719088 0.047049
vt 0.561718 0.128971
vt 0.508368 0.298176
vt 0.590290 0.455547
vt 0.759495 0.508897
vt 0.969233 0.719348
vt 0.881594 0.565089
vt 0.922126 0.890397
vt 0.767867 0.978037
vt 0.596818 0.930929
vt 0.509178 0.776670
vt 0.556286 0.605622
vt 0.710545 0.517982
vt 0.068223 0.262368
vt 0.071719 0.503055
vt 0.062308 0.024508
vt 0.477297 0.261515
vt 0.477245 0.502341
vt 0.476239 0.743052
vt 0.477705 0.980981
vt 0.076171 0.743840
vt 0.229067 0.259933
vt 0.233532 0.500723
vt 0.314989 0.023000
vt 0.316435 0.260930
vt 0.315417 0.501647
vt 0.315378 0.742479
vt 0.242911 0.979278
vt 0.237015 0.741417
vt 0.480192 0.023671
vt 0.077724 0.981697
vt 0.227494 0.022075
vt 0.312503 0.980324
vt 0.460016 0.022259
vt 0.097923 0.982732
vt 0.207295 0.021043
vt 0.332679 0.981734
vt 0.439039 0.013065
vt 0.119068 0.991532
vt 0.356606 0.012259
vt 0.201502 0.990796
vn 0.382684 -0.000000 -0.923880
vn 0.382683 -0.000000 -0.923880
vn 0.382684 0.000000 -0.923880
vn 0.382684 0.000000 -0.923880
vn -0.382683 -0.000000 -0.923880
vn -0.382683 -0.000000 -0.923880
vn -0.382684 0.000000 -0.923880
vn -0.382684 0.000000 -0.923880
vn -0.923879 0.000000 -0.382684
vn -0.923879 0.000000 -0.382684
vn -0.923879 -0.000000 -0.382684
vn -0.923879 -0.000000 -0.382684
vn -0.923879 0.000001 0.382684
vn -0.923879 0.000001 0.382684
vn -0.923879 -0.000001 0.382684
vn -0.923879 -0.000001 0.382684
vn -0.382684 0.000000 0.923880
vn -0.382684 0.000000 0.923879
vn -0.382684 -0.000000 0.923879
vn -0.382684 -0.000000 0.923880
vn 0.382684 0.000001 0.923879
vn 0.382684 0.000001 0.923880
vn 0.382684 -0.000001 0.923880
vn 0.382684 -0.000001 0.923879
vn 0.923880 -0.000001 0.382683
vn 0.923880 -0.000001 0.382683
vn 0.923880 0.000001 0.382683
vn 0.923880 0.000001 0.382684
vn 0.923880 -0.000001 -0.382683
vn 0.923879 -0.000001 -0.382684
vn 0.923879 0.000001 -0.382684
vn 0.923880 0.000001 -0.382683
vn 0.000000 -1.000000 0.000000
vn 0.000000 -1.000000 -0.000000
vn 0.000000 -1.000000 0.000000
vn 0.000000 -1.000000 0.000000
vn 0.000000 -1.000000 0.000000
vn 0.000000 -1.000000 0.000000
vn 0.000000 -1.000000 -0.000000
vn 0.000000 -1.000000 0.000000
vn 0.000000 -1.000000 0.000000
vn 0.000000 1.000000 -0.000000
vn 0.000000 1.000000 -0.000000
vn 0.000000 1.000000 -0.000000
vn 0.000000 1.000000 0.000000
vn 0.000000 1.000000 0.000000
vn 0.000000 1.000000 0.000000
vn 0.000000 1.000000 0.000000
vn 0.000000 1.000000 0.000000
vn 0.000000 1.000000 -0.000000
vn 0.000000 -1.000000 0.000000
vn 0.000000 -1.000000 -0.000000
vn 0.000000 -1.000000 -0.000000
vn 0.000000 -1.000000 0.000000
vn 0.000000 -1.000000 0.000000
vn 0.000000 -1.000000 0.000000
vn 0.000000 -1.000000 0.000000
vn 0.000000 -1.000000 0.000000
vn 0.000000 -1.000000 0.000000
vn 0.000000 -1.000000 0.000000
vn 0.000000 -1.000000 -0.000000
vn 0.000000 -1.000000 -0.000000
vn 0.000000 -1.000000 -0.000000
vn 0.000000 -1.000000 -0.000000
vn 0.000000 -1.000000 -0.000000
vn 0.000000 -1.000000 -0.000000
vn 0.000000 1.000000 0.000000
vn 0.000000 1.000000 -0.000000
vn 0.000000 1.000000 -0.000000
vn 0.000000 1.000000 0.000000
vn 0.000000 1.000000 -0.000000
vn 0.000000 1.000000 -0.000000
vn 0.000000 1.000000 0.000000
vn 0.000000 1.000000 0.000000
vn 0.000000 1.000000 0.000000
vn 0.000000 1.000000 0.000000
vn 0.000000 1.000000 0.000000
vn 0.000000 1.000000 0.000000
vn 0.000000 1.000000 -0.000000
vn 0.000000 1.000000 -0.000000
vn 0.000000 1.000000 -0.000000
vn 0.000000 1.000000 -0.000000
vn 0.380454 -0.107796 -0.918496
vn 0.380454 -0.107796 -0.918496
vn 0.380454 -0.107796 -0.918496
vn 0.380454 -0.107796 -0.918496
vn -0.380454 -0.107797 -0.918496
vn -0.380454 -0.107797 -0.918496
vn -0.380454 -0.107797 -0.918496
vn -0.380454 -0.107797 -0.918496
vn -0.918496 -0.107796 -0.380454
vn -0.918496 -0.107796 -0.380454
vn -0.918496 -0.107796 -0.380454
vn -0.918496 -0.107796 -0.380454
vn -0.918496 -0.107796 0.380454
vn -0.918496 -0.107796 0.380454
vn -0.918496 -0.107796 0.380454
vn -0.918496 -0.107796 0.380454
vn -0.380454 -0.107795 0.918496
vn -0.380454 -0.107795 0.918496
vn -0.380454 -0.107795 0.918496
vn -0.380454 -0.107795 0.918496
vn 0.380454 -0.107794 0.918496
vn 0.380454 -0.107794 0.918496
vn 0.380454 -0.107794 0.918496
vn 0.380454 -0.107794 0.918496
vn 0.918496 -0.107793 0.380454
vn 0.918496 -0.107793 0.380454
vn 0.918496 -0.107793 0.380454
vn 0.918496 -0.107793 0.380454
vn 0.918496 -0.107793 -0.380454
vn 0.918496 -0.107793 -0.380454
vn 0.918496 -0.107793 -0.380454
vn 0.918496 -0.107793 -0.380454
vn 0.380454 0.107796 -0.918496
vn 0.380454 0.107796 -0.918496
vn 0.380454 0.107796 -0.918496
vn 0.380454 0.107796 -0.918496
vn -0.380454 0.107797 -0.918496
vn -0.380454 0.107797 -0.918496
vn -0.380454 0.107797 -0.918496
vn -0.380454 0.107797 -0.918496
vn -0.918496 0.107796 -0.380454
vn -0.918496 0.107796 -0.380454
vn -0.918496 0.107796 -0.380454
vn -0.918496 0.107796 -0.380454
vn -0.918496 0.107796 0.380454
vn -0.918496 0.107796 0.380454
vn -0.918496 0.107796 0.380454
vn -0.918496 0.107796 0.380454
vn -0.380454 0.107794 0.918496
vn -0.380454 0.107794 0.918496
vn -0.380454 0.107794 0.918496
vn -0.380454 0.107794 0.918496
vn 0.380454 0.107794 0.918496
vn 0.380454 0.107794 0.918496
vn 0.380454 0.107794 0.918496
vn 0.380454 0.107794 0.918496
vn 0.918496 0.107793 0.380454
vn 0.918496 0.107793 0.380454
vn 0.918496 0.107793 0.380454
vn 0.918496 0.107793 0.380454
vn 0.918496 0.107793 -0.380454
vn 0.918496 0.107793 -0.380454
vn 0.918496 0.107793 -0.380454
vn 0.918496 0.107793 -0.380454
vn 0.382684 -0.000001 -0.923879
vn 0.382684 -0.000001 -0.923880
vn 0.382684 0.000001 -0.923880
vn 0.382684 0.000001 -0.923880
vn -0.382683 -0.000000 -0.923880
vn -0.382683 -0.000000 -0.923880
vn -0.382684 0.000000 -0.923879
vn -0.382684 0.000000 -0.923880
vn -0.923879 0.000001 -0.382684
vn -0.923879 0.000001 -0.382684
vn -0.923879 -0.000001 -0.382684
vn -0.923879 -0.000001 -0.382684
vn -0.923879 0.000002 0.382684
vn -0.923879 0.000002 0.382684
vn -0.923879 -0.000001 0.382684
vn -0.923879 -0.000001 0.382684
vn -0.382684 0.000001 0.923879
vn -0.382684 0.000001 0.923879
vn -0.382684 -0.000001 0.923879
vn -0.382684 -0.000001 0.923879
vn 0.382684 0.000002 0.923879
vn 0.382684 0.000002 0.923879
vn 0.382684 -0.000002 0.923879
vn 0.382684 -0.000002 0.923879
vn 0.923880 -0.000002 0.382683
vn 0.923880 -0.000002 0.382683
vn 0.923880 0.000002 0.382683
vn 0.923880 0.000002 0.382684
vn 0.923880 -0.000001 -0.382683
vn 0.923879 -0.000001 -0.382684
vn 0.923879 0.000002 -0.382684
vn 0.923880 0.000002 -0.382683
vn 0.000000 -1.000000 0.000000
vn 0.000000 -1.000000 0.000000
vn 0.000000 -1.000000 0.000000
vn 0.000000 -1.000000 0.000000
vn 0.000000 -1.000000 -0.000000
vn 0.000000 -1.000000 -0.000000
vn 0.000000 -1.000000 0.000000
vn 0.000000 -1.000000 0.000000
vn 0.000000 1.000000 -0.000000
vn 0.000000 1.000000 -0.000000
vn 0.000000 1.000000 0.000000
vn 0.000000 1.000000 0.000000
vn 0.000000 1.000000 0.000000
vn 0.000000 1.000000 0.000000
vn 0.000000 1.000000 0.000000
vn 0.000000 1.000000 -0.000000
s 1
g ProbodobodyneOKTO2_mesh
usemtl ProbodobodyneOKTO2_mat
f 49/1/1 50/2/2 51/3/3 52/4/4
s 2
f 53/5/5 54/6/6 55/7/7 56/8/8
s 3
f 57/9/9 58/10/10 59/11/11 60/12/12
s 4
f 61/13/13 62/14/14 63/15/15 64/16/16
s 5
f 65/17/17 66/18/18 67/19/19 68/20/20
s 6
f 69/21/21 70/22/22 71/23/23 72/24/24
s 7
f 73/25/25 74/26/26 75/27/27 76/28/28
s 8
f 77/29/29 78/30/30 79/31/31 80/32/32
s 9
f 82/33/33 81/34/34 83/35/35
f 84/36/36 82/33/33 83/35/35
f 85/37/37 84/36/36 83/35/35
f 86/38/38 85/37/37 83/35/35
f 87/39/39 86/38/38 83/35/35
f 88/40/40 87/39/39 83/35/35
f 89/41/41 88/40/40 83/35/35
f 81/34/34 89/41/41 83/35/35
s 10
f 90/42/42 91/43/43 92/44/44
f 91/43/43 93/45/45 92/44/44
f 93/45/45 94/46/46 92/44/44
f 94/46/46 95/47/47 92/44/44
f 95/47/47 96/48/48 92/44/44
f 96/48/48 97/49/49 92/44/44
f 97/49/49 98/50/50 92/44/44
f 98/50/50 90/42/42 92/44/44
s 11
f 2/51/51 1/52/52 17/53/53 18/54/54
f 3/126/55 2/51/51 18/54/54 19/56/56
f 4/57/57 3/55/55 19/122/56 20/58/58
f 5/59/59 4/57/57 20/58/58 21/60/60
f 6/61/61 5/59/59 21/60/60 22/62/62
f 7/125/63 6/61/61 22/62/62 23/64/64
f 8/65/65 7/63/63 23/121/64 24/66/66
f 1/52/52 8/65/65 24/66/66 17/53/53
s 12
f 9/67/67 10/68/68 26/69/69 25/70/70
f 10/68/68 11/124/71 27/120/72 26/69/69
f 11/71/71 12/73/73 28/74/74 27/72/72
f 12/73/73 13/75/75 29/76/76 28/74/74
f 13/75/75 14/77/77 30/78/78 29/76/76
f 14/77/77 15/123/79 31/119/80 30/78/78
f 15/79/79 16/81/81 32/82/82 31/80/80
f 16/81/81 9/67/67 25/70/70 32/82/82
s off
f 18/54/83 17/53/84 33/108/85 34/114/86
f 19/56/87 18/54/88 34/114/89 35/113/90
f 20/58/91 19/122/92 35/118/93 36/112/94
f 21/60/95 20/58/96 36/112/97 37/111/98
f 22/62/99 21/60/100 37/111/101 38/110/102
f 23/64/103 22/62/104 38/110/105 39/109/106
f 24/66/107 23/121/108 39/117/109 40/107/110
f 17/53/111 24/66/112 40/107/113 33/108/114
f 25/70/115 26/69/116 42/106/117 41/100/118
f 26/69/119 27/120/120 43/116/121 42/106/122
f 27/72/123 28/74/124 44/104/125 43/105/126
f 28/74/127 29/76/128 45/103/129 44/104/130
f 29/76/131 30/78/132 46/102/133 45/103/134
f 30/78/135 31/119/136 47/115/137 46/102/138
f 31/80/139 32/82/140 48/99/141 47/101/142
f 32/82/143 25/70/144 41/100/145 48/99/146
s 1
f 1/52/147 2/51/148 50/2/2 49/1/1
f 2/51/148 10/68/149 51/3/3 50/2/2
f 10/68/149 9/67/150 52/4/4 51/3/3
f 9/67/150 1/52/147 49/1/1 52/4/4
s 2
f 2/51/151 3/126/152 54/6/6 53/5/5
f 3/126/152 11/124/153 55/7/7 54/6/6
f 11/124/153 10/68/154 56/8/8 55/7/7
f 10/68/154 2/51/151 53/5/5 56/8/8
s 3
f 3/55/155 4/57/156 58/10/10 57/9/9
f 4/57/156 12/73/157 59/11/11 58/10/10
f 12/73/157 11/71/158 60/12/12 59/11/11
f 11/71/158 3/55/155 57/9/9 60/12/12
s 4
f 4/57/159 5/59/160 62/14/14 61/13/13
f 5/59/160 13/75/161 63/15/15 62/14/14
f 13/75/161 12/73/162 64/16/16 63/15/15
f 12/73/162 4/57/159 61/13/13 64/16/16
s 5
f 5/59/163 6/61/164 66/18/18 65/17/17
f 6/61/164 14/77/165 67/19/19 66/18/18
f 14/77/165 13/75/166 68/20/20 67/19/19
f 13/75/166 5/59/163 65/17/17 68/20/20
s 6
f 6/61/167 7/125/168 70/22/22 69/21/21
f 7/125/168 15/123/169 71/23/23 70/22/22
f 15/123/169 14/77/170 72/24/24 71/23/23
f 14/77/170 6/61/167 69/21/21 72/24/24
s 7
f 7/63/171 8/65/172 74/26/26 73/25/25
f 8/65/172 16/81/173 75/27/27 74/26/26
f 16/81/173 15/79/174 76/28/28 75/27/27
f 15/79/174 7/63/171 73/25/25 76/28/28
s 8
f 8/65/175 1/52/176 78/30/30 77/29/29
f 1/52/176 9/67/177 79/31/31 78/30/30
f 9/67/177 16/81/178 80/32/32 79/31/31
f 16/81/178 8/65/175 77/29/29 80/32/32
s 9
f 34/84/179 33/83/180 81/34/34 82/33/33
f 35/85/181 34/84/179 82/33/33 84/36/36
f 36/86/182 35/85/181 84/36/36 85/37/37
f 37/87/183 36/86/182 85/37/37 86/38/38
f 38/88/184 37/87/183 86/38/38 87/39/39
f 39/89/185 38/88/184 87/39/39 88/40/40
f 40/90/186 39/89/185 88/40/40 89/41/41
f 33/83/180 40/90/186 89/41/41 81/34/34
s 10
f 41/92/187 42/91/188 91/43/43 90/42/42
f 42/91/188 43/93/189 93/45/45 91/43/43
f 43/93/189 44/94/190 94/46/46 93/45/45
f 44/94/190 45/95/191 95/47/47 94/46/46
f 45/95/191 46/96/192 96/48/48 95/47/47
f 46/96/192 47/97/193 97/49/49 96/48/48
f 47/97/193 48/98/194 98/50/50 97/49/49
f 48/98/194 41/92/187 90/42/42 98/50/50
